<svg width="40" height="22" viewBox="0 0 40 22" xmlns="http://www.w3.org/2000/svg" xmlns:xlink="http://www.w3.org/1999/xlink"><defs><path id="a" d="M0 .114V21.68h18.33V.115H0z"/><path id="c" d="M4.945 21.68h4.73V.115H.215V21.68z"/></defs><g fill="none" fill-rule="evenodd"><g transform="translate(0 .01)"><mask id="b" fill="#fff"><use xlink:href="#a"/></mask><path d="M1.525 2.978C1.12 1.14 1.027.83.435.675L0 .55V.114h5.508V.55L5.04.643c-.994.218-.9 1.214-.62 2.552l2.458 12.2 1.805-9.71-.654-3.33C7.78 1.173 7.686.8 7.063.643L6.66.55V.114h5.695V.55l-.685.125c-1.027.186-.87 1.307-.622 2.52l2.365 12.2L15.747 3.85c.436-2.397.218-2.99-.716-3.176L14.38.55V.114h3.952V.55l-.436.156c-.622.217-.778.81-1.213 2.863l-3.796 18.11h-.81L9.15 7.553l-2.646 14.13H5.477L1.525 2.977z" fill="#1F1F1F" mask="url(#b)"/></g><path d="M23.37 21.69c-1.804 0-2.426-1.244-3.018-1.244-.342 0-.746.094-1.058 1.12h-.373v-7.095h.467c.374 4.016 1.868 6.537 3.953 6.537 1.4 0 2.365-1.276 2.365-3.58 0-4.854-6.94-6.94-6.94-12.323C18.765 2.21 20.228 0 22.873 0c1.712 0 2.054 1.12 2.77 1.12.404 0 .684-.31.84-.995h.374V7.22h-.467C26.016 3.64 25.083.685 22.842.685c-1.556 0-1.836 1.556-1.836 2.614 0 4.636 6.94 6.223 6.94 12.696 0 3.3-1.805 5.695-4.575 5.695" fill="#1F1F1F"/><g transform="translate(28.696 .01)"><mask id="d" fill="#fff"><use xlink:href="#c"/></mask><path d="M8.15 16.608c0 3.33-1.68 5.073-4.263 5.073-2.335 0-3.704-1.897-3.673-3.982.032-1.62 1.214-2.428 2.18-2.303.684.093 1.368.59 1.275 1.68-.094 1.556-1.775 1.494-1.837 2.46-.062.59.716 1.46 1.71 1.46 1.744 0 1.744-2.208 1.744-3.89V2.014c0-.872-.28-1.12-.965-1.276L3.544.55V.114h6.13V.55L8.99.737c-.622.155-.84.435-.84 1.307v14.564z" fill="#1F1F1F" mask="url(#d)"/></g></g></svg>