<?xml version="1.0" encoding="utf-8"?>
<!-- Generator: Adobe Illustrator 16.0.4, SVG Export Plug-In . SVG Version: 6.00 Build 0)  -->
<!DOCTYPE svg PUBLIC "-//W3C//DTD SVG 1.1//EN" "http://www.w3.org/Graphics/SVG/1.1/DTD/svg11.dtd">
<svg version="1.1" id="Layer_1" xmlns="http://www.w3.org/2000/svg" xmlns:xlink="http://www.w3.org/1999/xlink" x="0px" y="0px"
	 width="783px" height="112.588px" viewBox="0 0 783 112.588" enable-background="new 0 0 783 112.588" xml:space="preserve">
<g>
	<path d="M21.652,61.544c0,3.023,0.878,3.607,2.829,4.097l3.023,0.683v1.365H7.412v-1.365l2.536-0.584
		c1.951-0.487,2.829-1.465,2.829-4.193V2.438h-2.146c-6.047,0-8.485,9.851-9.168,20.287H0V0.488h34.429v22.238h-1.463
		C32.283,12.29,29.845,2.439,23.798,2.439h-2.146V61.544z M36.575,66.323l2.146-0.586c1.951-0.487,2.829-1.463,2.829-4.193V6.535
		c0-2.731-0.878-3.609-2.829-4.097l-2.146-0.585V0.487h19.019v1.366l-2.243,0.585c-1.853,0.488-2.926,1.268-2.926,3.999v25.651
		h14.728V6.437c0-2.731-1.073-3.511-2.926-3.999l-2.243-0.585V0.487h19.019v1.366l-2.146,0.585c-1.95,0.488-2.828,1.366-2.828,4.097
		v54.912c0,2.731,0.878,3.806,2.828,4.293l2.146,0.584v1.365h-19.02v-1.365l2.243-0.486c1.853-0.487,2.926-1.562,2.926-4.291V34.332
		H50.425v27.212c0,2.73,1.073,3.804,2.926,4.291l2.243,0.488v1.363H36.575V66.323z M94.998,65.739h6.73
		c8.778,0,10.436-9.949,11.606-20.287h1.463v22.235H81.148v-1.364l2.146-0.584c1.951-0.488,2.829-1.465,2.829-4.194V6.632
		c0-2.73-0.878-3.706-2.829-4.194l-2.146-0.585V0.487h32.674v22.238h-1.463c-1.073-10.436-3.121-20.287-10.631-20.287h-6.73v29.358
		l3.121-0.098c4.194-0.293,5.754-3.901,6.827-12.388h1.463v27.114h-1.463c-0.877-10.631-2.536-12.289-6.925-12.582l-3.023-0.098
		V65.739L94.998,65.739z M135.651,9.461c-1.268-5.754-2.048-6.632-3.901-7.12l-1.853-0.488V0.487h18.239v1.366l-1.463,0.292
		c-3.121,0.683-2.829,3.804-1.951,7.998l7.705,38.233l5.657-30.431l-2.048-10.437c-0.78-3.706-1.073-4.876-3.023-5.364l-1.268-0.292
		V0.486h17.849v1.366l-2.146,0.39c-3.219,0.585-2.731,4.096-1.951,7.9l7.413,38.235l7.315-36.186
		c1.365-7.51,0.683-9.363-2.243-9.948l-2.048-0.39V0.487h13.362v1.366l-1.853,0.488c-2.341,0.585-2.926,2.438-4.292,8.973
		l-11.899,56.765h-2.536l-9.168-44.28l-8.291,44.28h-3.219L135.651,9.461z M231.04,65.739h3.901c8.29,0,10.729-9.854,11.704-20.287
		h1.463v22.235h-49.84v-1.364l2.048-0.392c4.194-0.778,4.194-1.948,3.121-7.803l-1.853-8.778h-11.997l-1.268,6.635
		c-1.463,7.51-0.683,9.361,2.244,9.946l2.048,0.392v1.364h-13.557v-1.364l1.658-0.487c2.633-0.78,3.316-2.341,4.682-8.974
		l11.899-56.766h2.926l12.484,58.618c1.268,6.048,1.853,7.313,5.364,7.313c3.023,0,4.096-1.561,4.096-4.484V6.534
		c0-2.731-0.877-3.609-2.828-4.097l-2.146-0.585V0.487h19.312V1.95l-2.634,0.585c-1.95,0.39-2.828,1.268-2.828,3.999L231.04,65.739
		L231.04,65.739z M189.978,47.108h11.119L195.44,19.41L189.978,47.108z M264.104,65.739h3.901c8.291,0,10.729-9.854,11.704-20.287
		h1.463v22.235h-30.918v-1.364l2.146-0.584c1.951-0.488,2.829-1.465,2.829-4.194V6.535c0-2.731-0.878-3.609-2.829-4.097
		l-2.146-0.585V0.487h19.312V1.95l-2.633,0.585c-1.951,0.39-2.829,1.268-2.829,3.999V65.739L264.104,65.739z M312.976,68.077
		c-5.656,0-7.606-3.899-9.459-3.899c-1.073,0-2.341,0.292-3.316,3.511h-1.17V45.45h1.463c1.171,12.582,5.853,20.48,12.387,20.48
		c4.389,0,7.413-3.999,7.413-11.216c0-15.216-21.75-21.75-21.75-38.624c0-9.07,4.682-15.996,12.972-15.996
		c5.364,0,6.535,3.511,8.778,3.511c1.268,0,2.146-0.975,2.633-3.121h1.17v22.238h-1.463c-1.17-11.216-4.193-20.482-11.217-20.482
		c-4.876,0-5.852,4.876-5.852,8.193c0,14.533,21.75,19.507,21.75,39.793C327.312,60.569,321.656,68.077,312.976,68.077z
		 M348.868,61.544c0,2.73,0.878,3.706,2.829,4.193l2.536,0.586v1.363h-19.604v-1.363l2.536-0.586
		c1.951-0.487,2.829-1.463,2.829-4.193V2.438h-2.146c-6.047,0-8.485,9.851-9.168,20.287h-1.463V0.488h34.431v22.238h-1.464
		c-0.683-10.436-3.12-20.287-9.168-20.287h-2.146v59.105H348.868z M363.791,66.323l2.146-0.586c1.951-0.487,2.829-1.463,2.829-4.193
		V6.535c0-2.731-0.878-3.609-2.829-4.097l-2.146-0.585V0.487h18.629c8.291,0,15.996,5.267,15.996,16.288
		c0,8.486-3.999,14.436-12.095,16.582c8.876,1.657,8.876,5.853,9.754,17.067l0.585,8.583c0.293,4.779,0.488,5.854,1.854,5.854
		c1.463,0,2.049-3.315,2.049-6.535v-1.658h1.657v2.242c0,5.365-1.171,9.168-6.729,9.168c-5.463,0-7.998-3.121-8.39-14.336
		l-0.486-12.484c-0.195-5.95-1.658-6.828-4.487-6.828h-4.584v27.115c0,2.73,0.878,3.804,2.829,4.291l2.146,0.488v1.363h-18.727
		L363.791,66.323L363.791,66.323z M377.543,32.479h3.219c5.462,0,8.193-1.463,8.193-14.435c0-12.972-3.609-15.605-7.51-15.605
		h-3.901L377.543,32.479L377.543,32.479z M416.654,65.739h6.729c8.777,0,10.438-9.949,11.606-20.287h1.463v22.235h-33.649v-1.364
		l2.146-0.584c1.95-0.488,2.828-1.465,2.828-4.194V6.632c0-2.73-0.878-3.706-2.828-4.194l-2.146-0.585V0.487h32.675v22.238h-1.464
		c-1.07-10.436-3.12-20.287-10.631-20.287h-6.729v29.358l3.121-0.098c4.192-0.293,5.755-3.901,6.827-12.388h1.464v27.114h-1.464
		c-0.879-10.631-2.535-12.289-6.927-12.582l-3.021-0.098V65.739z M452.84,65.739h6.73c8.775,0,10.436-9.949,11.604-20.287h1.463
		v22.235H438.99v-1.364l2.146-0.584c1.95-0.488,2.829-1.465,2.829-4.194V6.632c0-2.73-0.879-3.706-2.829-4.194l-2.146-0.585V0.487
		h32.674v22.238h-1.463c-1.073-10.436-3.121-20.287-10.631-20.287h-6.73v29.358l3.121-0.098c4.193-0.293,5.754-3.901,6.827-12.388
		h1.464v27.114h-1.464c-0.878-10.631-2.536-12.289-6.925-12.582l-3.023-0.098V65.739L452.84,65.739z M496.438,61.544
		c0,3.023,0.88,3.607,2.828,4.097l3.023,0.683v1.365h-20.092v-1.365l2.536-0.584c1.948-0.487,2.829-1.465,2.829-4.193V2.438h-2.146
		c-6.047,0-8.485,9.851-9.168,20.287h-1.463V0.488h34.43v22.238h-1.463c-0.684-10.436-3.121-20.287-9.168-20.287h-2.146V61.544z
		 M549.991,52.181c0,10.438-5.27,15.896-13.362,15.896c-7.313,0-11.604-5.948-11.509-12.483c0.098-5.071,3.804-7.606,6.827-7.217
		c2.146,0.292,4.292,1.853,3.999,5.267c-0.293,4.877-5.562,4.682-5.755,7.705c-0.194,1.854,2.242,4.584,5.362,4.584
		c5.464,0,5.464-6.925,5.464-12.191V6.437c0-2.731-0.88-3.511-3.023-3.999l-2.438-0.585V0.487h19.216v1.366l-2.146,0.585
		c-1.95,0.488-2.633,1.366-2.633,4.097L549.991,52.181L549.991,52.181z M572.717,68.176c-11.411,0-16.972-15.41-16.972-34.138
		C555.745,15.41,561.11,0,572.717,0c11.509,0,17.068,15.41,17.068,34.038C589.785,52.766,584.519,68.176,572.717,68.176z
		 M572.717,2.243c-4.877,0-7.313,3.901-7.313,31.407c0,28.381,2.241,32.381,7.313,32.381c5.071,0,7.412-4,7.412-32.578
		C580.129,6.145,577.788,2.243,572.717,2.243z M628.409,66.323l2.145-0.586c1.951-0.487,2.829-1.463,2.829-4.193V6.535
		c0-3.219-1.463-4.389-4.877-4.389c-4.291,0-5.364,1.951-5.364,7.51v42.33c0,10.534-3.706,16.19-12.775,16.19
		c-9.363,0-14.824-5.656-14.824-15.897V6.535c0-2.731-0.684-3.609-2.634-4.097l-2.146-0.585V0.487h19.409v1.366l-2.634,0.585
		c-2.146,0.488-3.023,1.268-3.023,3.999v46.524c0,9.461,2.73,11.899,7.705,11.899c5.854,0,8.291-3.316,8.291-12.875V13.167
		c0-8.193-0.098-10.144-3.607-10.924l-1.854-0.39V0.487h31.992c8.29,0,15.995,5.267,15.995,16.288
		c0,8.486-3.999,14.436-12.095,16.582c8.876,1.657,8.876,5.853,9.754,17.067l0.585,8.583c0.293,4.779,0.486,5.854,1.854,5.854
		c1.463,0,2.049-3.315,2.049-6.535v-1.658h1.657v2.242c0,5.365-1.17,9.168-6.729,9.168c-5.462,0-7.998-3.121-8.39-14.336
		l-0.486-12.484c-0.195-5.95-1.658-6.828-4.486-6.828h-4.584v27.115c0,2.73,0.877,3.804,2.828,4.291l2.146,0.488v1.363h-18.728
		v-1.363H628.409z M642.161,32.479h3.219c5.461,0,8.192-1.463,8.192-14.435c0-12.972-3.608-15.605-7.51-15.605h-3.901V32.479z
		 M668.593,2.243l-1.364-0.39V0.487h12.775l17.459,44.28V12.874c0-7.217,0.194-9.753-4.975-10.631l-1.657-0.39V0.487h14.435v1.366
		l-1.364,0.39c-4.193,0.975-3.9,4.389-3.9,11.216v54.229h-3.121l-21.849-53.74v41.354c0,7.9,0,10.145,6.242,11.021v1.363h-14.047
		v-1.363l1.758-0.293c3.606-0.685,3.511-4.194,3.511-11.313V8.095C670.836,4.682,670.153,2.828,668.593,2.243z M754.423,65.739
		h3.901c8.29,0,10.729-9.854,11.704-20.287h1.463v22.235h-49.742v-1.364l2.048-0.392c4.194-0.778,4.292-1.948,3.121-7.803
		l-1.854-8.778h-11.995l-1.271,6.635c-1.463,7.51-0.682,9.361,2.244,9.946l2.048,0.392v1.364h-13.558v-1.364l1.657-0.487
		c2.635-0.78,3.315-2.341,4.683-8.974L720.77,0.097h2.928l12.482,58.618c1.271,6.048,1.756,7.313,5.269,7.313
		c3.021,0,4.097-1.561,4.097-4.484V6.534c0-2.731-0.878-3.609-2.828-4.097l-2.146-0.585V0.487h19.312V1.95l-2.634,0.585
		c-1.95,0.39-2.828,1.268-2.828,3.999L754.423,65.739L754.423,65.739z M713.458,47.108h11.119l-5.656-27.699L713.458,47.108z
		 M783,63.396c0,2.634-1.95,4.585-4.291,4.585s-4.292-1.951-4.292-4.585c0-2.633,1.951-4.584,4.292-4.584S783,60.764,783,63.396z"/>
</g>
<line fill="none" x1="0" y1="112.588" x2="783" y2="112.588"/>
</svg>
